# This file uses centimeters as units for non-parametric coordinates.

g default
v -0.075000 -0.500000 -0.000000
v -0.075000 -0.311745 -0.390916
v -0.075000 0.111260 -0.487464
v -0.075000 0.450484 -0.216942
v -0.075000 0.450484 0.216942
v -0.075000 0.111260 0.487464
v -0.075000 -0.311745 0.390916
v 0.075000 -0.500000 0.000000
v 0.075000 -0.311745 -0.390916
v 0.075000 0.111260 -0.487464
v 0.075000 0.450484 -0.216942
v 0.075000 0.450484 0.216942
v 0.075000 0.111260 0.487464
v 0.075000 -0.311745 0.390916
v 0.075000 -1.000000 0.000000
v 0.075000 -0.623490 -0.781832
v 0.075000 0.222521 -0.974928
v 0.075000 0.900969 -0.433884
v 0.075000 0.900969 0.433884
v 0.075000 0.222521 0.974928
v 0.075000 -0.623490 0.781831
v -0.075000 -1.000000 -0.000000
v -0.075000 -0.623490 -0.781832
v -0.075000 0.222521 -0.974928
v -0.075000 0.900969 -0.433884
v -0.075000 0.900969 0.433884
v -0.075000 0.222521 0.974928
v -0.075000 -0.623490 0.781831
vt 0.000000 1.000000
vt 0.142857 1.000000
vt 0.285714 1.000000
vt 0.428571 1.000000
vt 0.571429 1.000000
vt 0.714286 1.000000
vt 0.857143 1.000000
vt 1.000000 1.000000
vt 0.000000 0.750000
vt 0.142857 0.750000
vt 0.285714 0.750000
vt 0.428571 0.750000
vt 0.571429 0.750000
vt 0.714286 0.750000
vt 0.857143 0.750000
vt 1.000000 0.750000
vt 0.000000 0.500000
vt 0.142857 0.500000
vt 0.285714 0.500000
vt 0.428571 0.500000
vt 0.571429 0.500000
vt 0.714286 0.500000
vt 0.857143 0.500000
vt 1.000000 0.500000
vt 0.000000 0.250000
vt 0.142857 0.250000
vt 0.285714 0.250000
vt 0.428571 0.250000
vt 0.571429 0.250000
vt 0.714286 0.250000
vt 0.857143 0.250000
vt 1.000000 0.250000
vt 0.000000 0.000000
vt 0.142857 0.000000
vt 0.285714 0.000000
vt 0.428571 0.000000
vt 0.571429 0.000000
vt 0.714286 0.000000
vt 0.857143 0.000000
vt 1.000000 0.000000
vn -0.000000 0.900969 0.433884
vn -0.000000 0.900969 0.433884
vn -0.000000 0.900969 0.433884
vn -0.000000 0.900969 0.433884
vn -0.000000 0.222521 0.974928
vn -0.000000 0.222521 0.974928
vn -0.000000 0.222521 0.974928
vn -0.000000 0.222521 0.974928
vn 0.000000 -0.623490 0.781832
vn 0.000000 -0.623490 0.781832
vn 0.000000 -0.623490 0.781832
vn 0.000000 -0.623490 0.781832
vn 0.000000 -1.000000 -0.000000
vn 0.000000 -1.000000 -0.000000
vn 0.000000 -1.000000 -0.000000
vn 0.000000 -1.000000 -0.000000
vn 0.000000 -0.623490 -0.781832
vn 0.000000 -0.623490 -0.781832
vn 0.000000 -0.623490 -0.781832
vn 0.000000 -0.623490 -0.781832
vn -0.000000 0.222521 -0.974928
vn -0.000000 0.222521 -0.974928
vn -0.000000 0.222521 -0.974928
vn -0.000000 0.222521 -0.974928
vn 0.000000 0.900969 -0.433884
vn -0.000000 0.900969 -0.433884
vn 0.000000 0.900969 -0.433884
vn -0.000000 0.900969 -0.433884
vn 1.000000 0.000000 -0.000000
vn 1.000000 0.000000 0.000000
vn 1.000000 0.000000 -0.000000
vn 1.000000 0.000000 0.000000
vn 1.000000 0.000000 0.000000
vn 1.000000 0.000000 -0.000000
vn 1.000000 0.000000 0.000000
vn 1.000000 0.000000 -0.000000
vn 1.000000 0.000000 0.000000
vn 1.000000 0.000000 0.000000
vn 1.000000 0.000000 0.000000
vn 1.000000 0.000000 0.000000
vn 1.000000 0.000000 0.000000
vn 1.000000 0.000000 0.000000
vn 0.000000 -0.900969 -0.433884
vn 0.000000 -0.900969 -0.433884
vn 0.000000 -0.900969 -0.433884
vn 0.000000 -0.900969 -0.433884
vn 0.000000 -0.222521 -0.974928
vn 0.000000 -0.222521 -0.974928
vn 0.000000 -0.222521 -0.974928
vn 0.000000 -0.222521 -0.974928
vn -0.000000 0.623490 -0.781832
vn -0.000000 0.623490 -0.781832
vn -0.000000 0.623490 -0.781832
vn -0.000000 0.623490 -0.781832
vn -0.000000 1.000000 0.000000
vn -0.000000 1.000000 0.000000
vn -0.000000 1.000000 0.000000
vn -0.000000 1.000000 0.000000
vn -0.000000 0.623490 0.781832
vn -0.000000 0.623490 0.781832
vn -0.000000 0.623490 0.781832
vn -0.000000 0.623490 0.781832
vn 0.000000 -0.222521 0.974928
vn 0.000000 -0.222521 0.974928
vn 0.000000 -0.222521 0.974928
vn 0.000000 -0.222521 0.974928
vn -0.000000 -0.900969 0.433884
vn 0.000000 -0.900969 0.433884
vn -0.000000 -0.900969 0.433884
vn 0.000000 -0.900969 0.433884
vn -1.000000 -0.000000 0.000000
vn -1.000000 -0.000000 0.000000
vn -1.000000 -0.000000 0.000000
vn -1.000000 -0.000000 -0.000000
vn -1.000000 -0.000000 -0.000000
vn -1.000000 -0.000000 -0.000000
vn -1.000000 -0.000000 0.000000
vn -1.000000 -0.000000 0.000000
vn -1.000000 -0.000000 -0.000000
vn -1.000000 -0.000000 0.000000
vn -1.000000 -0.000000 -0.000000
vn -1.000000 -0.000000 0.000000
vn -1.000000 -0.000000 -0.000000
vn -1.000000 -0.000000 -0.000000
s 1
g pPipe1
f 2/2/1 1/1/2 9/10/3
f 9/10/3 1/1/2 8/9/4
s 2
f 3/3/5 2/2/6 10/11/7
f 10/11/7 2/2/6 9/10/8
s 3
f 4/4/9 3/3/10 11/12/11
f 11/12/11 3/3/10 10/11/12
s 4
f 5/5/13 4/4/14 12/13/15
f 12/13/15 4/4/14 11/12/16
s 5
f 6/6/17 5/5/18 13/14/19
f 13/14/19 5/5/18 12/13/20
s 6
f 7/7/21 6/6/22 14/15/23
f 14/15/23 6/6/22 13/14/24
s 7
f 1/8/25 7/7/26 8/16/27
f 8/16/27 7/7/26 14/15/28
s 8
f 9/10/29 8/9/30 16/18/31
f 16/18/31 8/9/30 15/17/32
f 10/11/33 9/10/29 17/19/34
f 17/19/34 9/10/29 16/18/31
f 11/12/35 10/11/33 18/20/36
f 18/20/36 10/11/33 17/19/34
f 12/13/37 11/12/35 19/21/38
f 19/21/38 11/12/35 18/20/36
f 13/14/39 12/13/37 20/22/40
f 20/22/40 12/13/37 19/21/38
f 14/15/41 13/14/39 21/23/42
f 21/23/42 13/14/39 20/22/40
f 8/16/30 14/15/41 15/24/32
f 15/24/32 14/15/41 21/23/42
s 9
f 16/18/43 15/17/44 23/26/45
f 23/26/45 15/17/44 22/25/46
s 10
f 17/19/47 16/18/48 24/27/49
f 24/27/49 16/18/48 23/26/50
s 11
f 18/20/51 17/19/52 25/28/53
f 25/28/53 17/19/52 24/27/54
s 12
f 19/21/55 18/20/56 26/29/57
f 26/29/57 18/20/56 25/28/58
s 13
f 20/22/59 19/21/60 27/30/61
f 27/30/61 19/21/60 26/29/62
s 14
f 21/23/63 20/22/64 28/31/65
f 28/31/65 20/22/64 27/30/66
s 15
f 15/24/67 21/23/68 22/32/69
f 22/32/69 21/23/68 28/31/70
s 16
f 23/26/71 22/25/72 2/34/73
f 2/34/73 22/25/72 1/33/74
f 24/27/75 23/26/71 3/35/76
f 3/35/76 23/26/71 2/34/73
f 25/28/77 24/27/75 4/36/78
f 4/36/78 24/27/75 3/35/76
f 26/29/79 25/28/77 5/37/80
f 5/37/80 25/28/77 4/36/78
f 27/30/81 26/29/79 6/38/82
f 6/38/82 26/29/79 5/37/80
f 28/31/83 27/30/81 7/39/84
f 7/39/84 27/30/81 6/38/82
f 22/32/72 28/31/83 1/40/74
f 1/40/74 28/31/83 7/39/84
