# This file uses centimeters as units for non-parametric coordinates.

g default
v 0.844812 1.730974 -1.431279
v 0.588526 2.695784 -1.490085
v -0.081023 2.038884 -0.883409
v 0.137963 2.700126 -1.188645
v 0.137963 1.727580 -0.955934
v 0.975294 2.084554 -1.603481
v -0.084259 2.376543 -0.962031
v 0.460404 1.555113 -1.131132
v 0.825210 2.500063 -1.602147
vt 1.000000 0.000000
vt 1.000000 1.000000
vt 0.000000 0.502135
vt 0.000000 0.502135
vt 1.000000 0.000000
vt 1.000000 1.000000
vt 0.000000 0.502135
vt 1.000000 0.000000
vt 1.000000 1.000000
vn 0.546697 0.194856 0.814342
vn 0.546697 0.194856 0.814342
vn 0.546697 0.194856 0.814342
vn 0.546697 0.194856 0.814342
vn 0.546697 0.194856 0.814342
vn 0.546697 0.194856 0.814342
vn 0.546697 0.194856 0.814342
vn 0.546697 0.194856 0.814342
vn 0.546697 0.194856 0.814342
s off
g pPlane5
f 3/3/1 1/1/2 2/2/3
f 6/4/4 4/5/5 5/6/6
f 9/7/7 7/8/8 8/9/9
g default
v 0.862027 0.088620 -0.519273
v 0.641530 0.931209 -1.010624
v -0.141695 0.539952 -0.316833
v 0.143576 1.032134 -0.821553
v 0.080165 0.238626 -0.216305
v 1.029369 0.348907 -0.794854
v -0.123258 0.816150 -0.525592
v 0.425477 0.028218 -0.246213
v 0.890496 0.720363 -0.989559
vt 1.000000 0.000000
vt 1.000000 1.000000
vt 0.000000 0.502135
vt 0.000000 0.502135
vt 1.000000 0.000000
vt 1.000000 1.000000
vt 0.000000 0.502135
vt 1.000000 0.000000
vt 1.000000 1.000000
vn 0.392336 0.537817 0.746208
vn 0.392336 0.537817 0.746208
vn 0.392336 0.537817 0.746208
vn 0.392336 0.537817 0.746208
vn 0.392336 0.537817 0.746208
vn 0.392336 0.537817 0.746208
vn 0.392336 0.537817 0.746208
vn 0.392336 0.537817 0.746208
vn 0.392336 0.537817 0.746208
s off
g pPlane6
f 12/12/10 10/10/11 11/11/12
f 15/13/13 13/14/14 14/15/15
f 18/16/16 16/17/17 17/18/18
g default
v 0.570206 1.251581 0.281572
v 0.337045 2.040089 -0.287543
v -0.423583 1.730279 0.469645
v -0.153526 2.164531 -0.093258
v -0.199893 1.439197 0.593577
v 0.729192 1.480184 -0.025287
v -0.411010 1.982979 0.232600
v 0.143104 1.223831 0.574144
v 0.585522 1.830448 -0.252990
vt 1.000000 0.000000
vt 1.000000 1.000000
vt 0.000000 0.502135
vt 0.000000 0.502135
vt 1.000000 0.000000
vt 1.000000 1.000000
vt 0.000000 0.502135
vt 1.000000 0.000000
vt 1.000000 1.000000
vn 0.420731 0.609432 0.671996
vn 0.420731 0.609432 0.671996
vn 0.420731 0.609432 0.671996
vn 0.420731 0.609432 0.671996
vn 0.420731 0.609432 0.671996
vn 0.420731 0.609432 0.671996
vn 0.420731 0.609432 0.671996
vn 0.420731 0.609432 0.671996
vn 0.420731 0.609432 0.671996
s off
g pPlane7
f 21/21/19 19/19/20 20/20/21
f 24/22/22 22/23/23 23/24/24
f 27/25/25 25/26/26 26/27/27
